<svg width="112" height="112" viewBox="0 0 112 112" fill="none" xmlns="http://www.w3.org/2000/svg">
<path fill-rule="evenodd" clip-rule="evenodd" d="M35.0896 34.8257L42.0213 34.8292L42.0178 41.7608L35.0861 41.7574L35.0896 34.8257ZM69.748 34.843L76.6797 34.8465L76.6762 41.7782L69.7446 41.7747L69.748 34.843ZM42.0126 52.1584L35.0809 52.1549L35.0775 59.0866L42.0091 59.0901L42.0126 52.1584ZM69.7394 52.1723L76.671 52.1757L76.6676 59.1074L69.7359 59.1039L69.7394 52.1723ZM42.0039 69.4876L35.0722 69.4841L35.0688 76.4158L42.0005 76.4193L42.0039 69.4876ZM69.7307 69.5015L76.6624 69.5049L76.6589 76.4366L69.7272 76.4332L69.7307 69.5015ZM59.3505 34.8378L52.4188 34.8344L52.4153 41.766L59.347 41.7695L59.3505 34.8378ZM52.4101 52.1636L59.3418 52.167L59.3384 59.0987L52.4067 59.0953L52.4101 52.1636ZM59.3332 69.4963L52.4015 69.4928L52.398 76.4245L59.3297 76.428L59.3332 69.4963Z" fill="#001A23"/>
</svg>
